<svg width="186" height="24" viewBox="0 0 186 24" fill="none" xmlns="http://www.w3.org/2000/svg">
  <g clip-path="url(#clip0_43_1617)">
    <path d="M35.6461 23.4714L41.9594 8.98686L48.2727 23.4714H51.6722L43.8048 4.96924H40.1139L32.2466 23.4714H35.6461Z" fill="#BFBB0D"/>
    <path d="M85.6668 6.34361C84.2099 4.96916 82.2674 4.44053 80.3248 4.44053C76.8282 4.44053 73.4287 6.23789 73.4287 10.0441C73.4287 16.7048 82.3645 14.3789 82.3645 18.3965C82.3645 20.0881 80.6162 20.9339 79.0621 20.9339C77.6052 20.9339 76.1483 20.1938 75.3713 19.0308L72.7488 21.4626C74.3029 23.2599 76.5368 24 78.8679 24C82.5587 24 85.764 22.0969 85.764 18.0793C85.764 11.5242 76.8282 13.6388 76.8282 9.8326C76.8282 8.14097 78.3822 7.40088 79.9363 7.40088C81.199 7.40088 82.5587 7.82379 83.2386 8.88106L85.6668 6.34361ZM49.4381 0H34.4804V2.96035H49.341V0H49.4381ZM165.409 23.4714H168.517L172.888 9.30396H172.985L177.356 23.4714H180.561L186 4.86344H182.601L178.813 18.2907H178.715L174.539 4.96916H171.237L167.06 18.2907H166.963L163.466 4.96916H159.775L165.409 23.4714ZM158.416 9.62115C158.416 6.23789 155.502 4.96916 152.685 4.96916H145.303V23.5771H152.102C155.696 23.5771 159.193 22.3084 159.193 18.2907C159.193 15.859 157.444 14.0617 155.113 13.8502C157.056 13.1101 158.416 11.63 158.416 9.62115ZM148.703 15.3304H151.908C154.628 15.3304 155.89 15.9648 155.89 17.9736C155.89 20.4053 153.462 20.7225 151.811 20.7225H148.703V15.3304ZM155.113 10.1498C155.113 11.5242 153.948 12.4758 151.811 12.4758H148.8V7.71806H151.52C153.948 7.71806 155.113 8.56388 155.113 10.1498ZM129.763 23.4714H133.162V7.92952H138.893V4.96916H124.032V7.92952H129.763V23.4714ZM108.589 23.4714H121.507V20.511H111.891V15.4361H120.536V12.4758H111.891V7.92952H121.021V4.96916H108.589C108.589 4.86344 108.589 23.4714 108.589 23.4714ZM88.6778 23.4714H91.9802V9.19824H92.0773L101.402 23.4714H105.675V4.86344H102.373V18.6079L102.276 18.7137H102.373L102.276 18.6079L93.1457 4.86344H88.6778V23.4714ZM53.3232 23.4714H56.7227V9.19824H56.8198L66.1441 23.4714H70.4178V4.86344H67.0183V18.6079L66.9211 18.7137H67.0183L66.9211 18.6079L57.7911 4.86344H53.3232V23.4714ZM30.3039 10.2555C30.3039 6.13216 26.9044 4.96916 23.3107 4.96916H16.8031V23.5771H20.1055V15.7533H22.5337L26.9044 23.5771H30.9838L26.0303 15.3304C28.7499 14.9075 30.3039 12.8987 30.3039 10.2555ZM26.8073 10.2555C26.8073 12.6872 24.5734 12.793 22.7279 12.793H20.1055V7.71806H23.0193C24.7676 7.71806 26.8073 8.03524 26.8073 10.2555ZM0 4.86344V7.82379H5.73055V23.3656H9.0329V7.92952H14.7634V4.96916C14.8606 4.86344 0 4.86344 0 4.86344Z" fill="white"/>
  </g>
  <defs>
    <clipPath id="clip0_43_1617">
      <rect width="186" height="24" fill="white"/>
    </clipPath>
  </defs>
</svg>
